<svg width="1440" height="127" fill="none" xmlns="http://www.w3.org/2000/svg"><path d="M1440 57v70L719.746 72.266 0 127V57h1440Z" fill="#B7932B" fill-opacity=".33"/><path d="M1440 57v70L719.746 79.221 0 127V57h1440Z" fill="#B7932B" fill-opacity=".33"/><path d="M1440 70v24l-720.254-9L0 94V70h1440Z" fill="#B7932B" fill-opacity=".33"/><path d="M1440 57.002v8.1L719.746 84 0 65.1V57l1440 .002Z" fill="#B7932B"/><path d="M1440 70V0L719.746 54.734 0 0v70h1440Z" fill="#B7932B" fill-opacity=".33"/><path d="M1440 70V0L719.746 47.779 0 0v70h1440Z" fill="#B7932B" fill-opacity=".33"/><path d="M1440 57V33l-720.254 9L0 33v24h1440Z" fill="#B7932B" fill-opacity=".33"/><path d="M1440 69.998v-8.1L719.746 43 0 61.9V70l1440-.002Z" fill="#B7932B"/></svg>